<svg xmlns="http://www.w3.org/2000/svg" viewBox="0 0 463 463">
  <path d="M403.77 72.38c3.6-4.57 4.25-10.66 1.7-15.9S397.75 48 391.93 48H335.7a31.8 31.8 0 0 0-13.66-26.45l4.44-11.3a7.5 7.5 0 0 0-13.96-5.5l-4.5 11.48A31.57 31.57 0 0 0 274.88 36l-4.68 12H71.09c-5.82 0-11.01 3.25-13.56 8.48s-1.89 11.33 1.7 15.9L224 282.1v117.4a48.55 48.55 0 0 1-48.5 48.5h-24a7.5 7.5 0 1 0 0 15h160a7.5 7.5 0 1 0 0-15h-24a48.55 48.55 0 0 1-48.5-48.5V282.1L403.77 72.38zm-135 70.62c7.8 0 11.3 1.5 15.73 3.4 5.04 2.16 10.76 4.6 21.64 4.6 9.58 0 15.16-1.9 19.8-3.83l-94.44 120.2-94.44-120.19c4.63 1.93 10.2 3.82 19.76 3.82 10.86 0 16.57-2.45 21.6-4.6 4.42-1.9 7.91-3.4 15.7-3.4 7.79 0 11.28 1.5 15.7 3.4 5.03 2.15 10.74 4.6 21.6 4.6 10.88 0 16.6-2.45 21.63-4.6 4.43-1.9 7.92-3.4 15.72-3.4zm20.09-101.54a16.53 16.53 0 0 1 21.4-9.31A16.58 16.58 0 0 1 320.7 48h-34.4l2.56-6.54zM71.08 63l320.87-.02c.02.03.06.1.03.14l-51.02 64.93c-9.25.35-14.46 2.57-19.1 4.56-4.42 1.9-7.92 3.4-15.73 3.4-7.8 0-11.3-1.5-15.73-3.4a52.4 52.4 0 0 0-10.59-3.57l15.24-38.8a7.5 7.5 0 0 0-13.96-5.48l-17.06 43.42c-7.9.59-12.64 2.6-16.89 4.43-4.42 1.9-7.92 3.4-15.71 3.4-7.79 0-11.28-1.5-15.7-3.4-5.04-2.16-10.74-4.6-21.61-4.6s-16.57 2.44-21.6 4.6c-4.43 1.9-7.92 3.4-15.7 3.4-7.8 0-11.28-1.5-15.7-3.4-4.64-1.99-9.84-4.21-19.1-4.56L71 63.11c0-.04.04-.1.09-.1zm175.5 385h-30.15a63.93 63.93 0 0 0 15.07-18.6 63.89 63.89 0 0 0 15.08 18.6z"/>
  <path d="m249.66 164.76-25.14 64a7.5 7.5 0 1 0 13.96 5.48l25.14-64a7.5 7.5 0 1 0-13.96-5.48z"/>
</svg>
