<svg xmlns="http://www.w3.org/2000/svg" viewBox="0 0 32 32">
  <path d="M30 12.75h-5.27L19.14 2.41a1.25 1.25 0 1 0-2.2 1.19l4.95 9.15H10.15l5-9.15a1.25 1.25 0 0 0-2.2-1.2L7.3 12.75H2a1.25 1.25 0 0 0 0 2.5h.95l1.86 13.92c.08.61.6 1.08 1.23 1.08h20c.64 0 1.16-.47 1.24-1.08l1.86-13.92H30a1.25 1.25 0 0 0 0-2.5zm-5.05 15H7.14l-1.67-12.5h21.15zm-8.9-11h-.01c-.69 0-1.25.56-1.25 1.24l-.04 7a1.25 1.25 0 1 0 2.5 0v.02l.04-7c0-.7-.56-1.26-1.24-1.26zm-4.98 0c-.7 0-1.26.56-1.26 1.24l-.03 7c0 .7.55 1.26 1.24 1.26.7 0 1.25-.56 1.26-1.24l.03-7V18c0-.69-.56-1.25-1.24-1.25zm9.95 0c-.7 0-1.25.56-1.26 1.24l-.03 7a1.25 1.25 0 0 0 2.5.02l.03-7V18c0-.69-.55-1.25-1.24-1.25z"/>
</svg>
